PathFileType	4	(X/Y/Z)	RBDS019\RBDS019runT45.trc
DataRate	CameraRate	NumFrames	NumMarkers	Units	OrigDataRate	OrigDataStartFrame	OrigNumFrames
150.000000	150.000000	4	33	mm	150.000000	3937	4500
Frame#	Time	L.ASIS			L.Heel.Bottom			L.Heel.Lateral			L.Heel.Top			L.Iliac.Crest			L.MT1			L.MT5			L.PSIS			L.Shank.Bottom.Lateral			L.Shank.Bottom.Medial			L.Shank.Top.Lateral			L.Shank.Top.Medial			L.Thigh.Bottom.Lateral			L.Thigh.Bottom.Medial			L.Thigh.Top.Lateral			L.Thigh.Top.Medial			R.ASIS			R.ASY			R.Heel.Bottom			R.Heel.Lateral			R.Heel.Top			R.Iliac.Crest			R.MT1			R.MT5			R.PSIS			R.Shank.Bottom.Lateral			R.Shank.Bottom.Medial			R.Shank.Top.Lateral			R.Shank.Top.Medial			R.Thigh.Bottom.Lateral			R.Thigh.Bottom.Medial			R.Thigh.Top.Lateral			R.Thigh.Top.Medial			
		X1	Y1	Z1	X2	Y2	Z2	X3	Y3	Z3	X4	Y4	Z4	X5	Y5	Z5	X6	Y6	Z6	X7	Y7	Z7	X8	Y8	Z8	X9	Y9	Z9	X10	Y10	Z10	X11	Y11	Z11	X12	Y12	Z12	X13	Y13	Z13	X14	Y14	Z14	X15	Y15	Z15	X16	Y16	Z16	X17	Y17	Z17	X18	Y18	Z18	X19	Y19	Z19	X20	Y20	Z20	X21	Y21	Z21	X22	Y22	Z22	X23	Y23	Z23	X24	Y24	Z24	X25	Y25	Z25	X26	Y26	Z26	X27	Y27	Z27	X28	Y28	Z28	X29	Y29	Z29	X30	Y30	Z30	X31	Y31	Z31	X32	Y32	Z32	X33	Y33	Z33	

3938	26.24666666666667	2368.622415388944	941.537664132363	985.4039803721449	1703.914853250065	603.0741837102953	1108.15591806361	1697.353910532452	578.4778677000588	1058.467454694553	1741.532720288798	577.6020359351504	1091.979646478606	2330.431063463267	1015.464265456863	954.0563467807385	1638.815235526986	406.7253697357989	1112.550855171447	1619.917228421298	460.462297504591	1023.288282005235	2203.724936048555	999.938213896132	1031.60786316841	1795.846685138038	524.6551261578217	1018.028317741027	1797.773281665687	558.4832163761708	1056.244035517002	1872.39942548858	540.4922181942301	995.9351126578034	1878.68108456172	574.3400529080798	1036.249520088299	2158.641410925042	601.2429592298308	946.4874925901166	2106.838535908538	628.4221250508577	990.4585299158827	2195.324484573989	702.1951234199571	926.8087138545229	2144.480918247109	728.6487118227722	968.4020221844388	2334.513757183211	969.1519870175827	1194.308111702232	nan	nan	nan	2518.793013540661	35.44885853836368	1123.400049868969	2540.303778916857	57.99745567597409	1163.92963783896	2508.194993495742	79.77655386445214	1127.488448276581	2277.79367891716	1027.756846470945	1226.587344743914	2687.687695016968	141.2984698700785	1081.15219286516	2677.839408447711	107.5677514307162	1183.072373931685	2191.919540881436	999.9007557637547	1130.104225768782	2535.626787729414	188.9189567379963	1185.096585084978	2493.314756346848	181.2504838445672	1149.748192281547	2503.676491973247	261.292699897696	1205.795350210309	2464.152128943884	254.3240527053216	1168.489928256518	2414.227638915841	592.81514580495	1234.353775664501	2359.757328196742	568.6033817808711	1195.694260161259	2359.260756516404	685.8786620939462	1255.87480844078	2304.686698027089	660.1402834258421	1223.185298209151	
3939	26.25333333333333	2369.477264847274	938.8753073917741	986.3732705804814	1721.590690620487	618.0291744800966	1111.878544795134	1714.500791745396	595.2403025112567	1061.460305569379	1758.134590882198	590.860085289011	1095.57249984651	2330.75774516174	1011.931809278866	954.2018884411569	1645.432365181364	425.2785946760767	1110.007726667826	1631.227977909545	482.4176537094701	1022.015081708564	2203.489438730453	994.9132925063305	1031.619571043526	1808.991483239667	535.3323486122707	1019.303457591582	1812.931497310202	568.6475961651616	1057.718845348068	1886.209730909336	546.6751098855403	997.0648826596361	1894.498006566558	579.7484155809049	1037.535835309702	2164.9754683494	594.6781257867698	946.5657330276689	2113.49663827438	620.456970705602	991.7075404823776	2199.347062353893	696.5058272585699	927.2861024319935	2148.773878435291	721.65083055302	969.9162164980195	2333.21649285998	965.5154041713016	1195.305879527183	nan	nan	nan	2508.902917211866	30.08269472884383	1123.338125123254	2530.280562097508	52.04682488150862	1164.1736750932	2499.323068220427	74.31387970545255	1127.335704703974	2276.500047515855	1024.693576936814	1226.662618748504	2679.112342540168	132.5801171094927	1083.082792241261	2667.727510707017	99.28229378853734	1184.71529876133	2190.869625736981	994.7344185338219	1130.284220136406	2526.458852217134	181.2387305952875	1185.543459329508	2484.60700560547	173.7570470005341	1149.651669945377	2494.624548941862	253.7256026213095	1205.904013485193	2455.540577755737	246.9268624866971	1168.034892815625	2406.684420943444	585.8079682792857	1234.643137269081	2352.39160813639	563.0325504078183	1194.704488873727	2353.202796037355	679.6828970213048	1255.987760453366	2298.651372488754	655.2882730173558	1222.108407200571	
3940	26.26	2370.196291905496	935.6219902526	987.3142986716255	1740.63442953656	631.220081997236	1115.387197005344	1733.251189457435	610.2177332087244	1064.232551067808	1776.117680757522	602.5233290858148	1099.031124785595	2331.395486828372	1007.681963954527	954.3247025139596	1654.30534157648	442.3810008091387	1107.269552654934	1644.899663464322	502.5464983876055	1020.472369705065	2203.065172466704	989.2166036244172	1031.511088743353	1823.630913475545	544.8004387550905	1020.448535743392	1829.559517745344	577.3456942623116	1059.180510101661	1901.27404221742	551.658901967849	998.143123740651	1911.533330841544	583.6908415955003	1038.873946390312	2171.376552643659	587.523009115915	946.45360078082	2120.219033763684	611.77404735474	992.8049106252039	2203.26282247351	690.2541521690279	927.7239333926201	2153.005558396471	713.9760316417893	971.4648198385955	2331.829890103105	961.2849240431534	1196.531853045574	nan	nan	nan	2494.929256455157	25.82066347524691	1123.369192094702	2516.411880141197	46.97650151695657	1164.465842759203	2487.07379472868	69.99682834240096	1127.083127398106	2275.07519148408	1020.911549728649	1226.874600278636	2667.621352252107	122.1985884353408	1085.016700887953	2654.168120731503	89.98119418668396	1186.506119623123	2189.554892200673	988.991557169069	1130.34219789369	2515.140736536763	173.648482373696	1185.904584972594	2473.658738388832	166.7859922956451	1149.535093822588	2484.129551796816	246.4710693025211	1205.988608555217	2445.389388700723	240.2506973313008	1167.660794969427	2399.783071536758	579.3812385997873	1234.88982452329	2345.700161879153	557.7624298988829	1193.955283125744	2347.457318270448	673.8957642904074	1256.057005881864	2293.033086896082	650.6042293120098	1221.154187382153	
3941	26.26666666666667	2370.72568171478	931.7881187141177	988.21890993778	1760.810140799203	642.7014915110213	1118.435658170996	1753.334752511483	623.3173893136038	1066.591959624847	1795.260081713747	612.627768224301	1102.145585399623	2332.258823171387	1002.76026372049	954.4138033572234	1665.344190980012	457.924463097222	1104.554557203508	1660.675866891713	520.5543290167135	1018.753960388096	2202.408163130232	982.9083055106272	1031.202732993304	1839.637043077129	552.9904198986117	1021.408155583102	1847.500993941295	584.5618549865678	1060.547929551799	1917.474495949571	555.4079840501311	999.1126528799883	1929.633516070163	586.1877216705565	1040.178225507158	2177.955153112448	579.7594624108133	946.1481758828927	2127.033390802791	602.3728182532277	993.6359596148698	2207.158464332848	683.4122977478296	928.0786307108586	2157.190846144858	705.6057497050726	972.9130779010684	2330.313544608132	956.550551055777	1197.993885293595	nan	nan	nan	2477.244176738765	22.69805774827556	1123.436869103313	2499.063941657175	42.86889782723625	1164.72910483611	2471.702422022141	66.84615946776138	1126.703220806223	2273.501205825562	1016.335709357058	1227.263637004274	2653.360451651952	110.6159804854205	1086.776134397412	2637.461795593575	80.05248826781693	1188.29263238969	2187.927976020081	982.7810825051127	1130.185209662545	2501.936634800463	166.3425943536905	1186.145103260521	2460.694156255271	160.523347414055	1149.423786385918	2472.446852069574	239.6751514799587	1206.095855938852	2433.912086803558	234.4385379782929	1167.474576932671	2393.55036474195	573.5352313588864	1235.241414523586	2339.739531766512	552.7958565584435	1193.525755017427	2342.011869279358	668.5163399925256	1256.185173012219	2287.835897625366	646.0805005065725	1220.379683102565	
